<svg xmlns="http://www.w3.org/2000/svg" width="107" height="107" fill="none" viewBox="0 0 107 107"><path fill="#202421" d="M46.652 33.489C47.3 33.279 48.646 32.928 49.648 32.712 51.028 32.413 52.085 32.338 54.035 32.402 55.893 32.462 57.196 32.639 58.743 33.044 59.92 33.35 61.606 33.947 62.488 34.368 63.372 34.79 64.622 35.488 65.268 35.918 65.914 36.348 67.106 37.326 67.917 38.092 68.73 38.856 69.803 40.012 70.303 40.66 70.804 41.306 71.604 42.558 72.079 43.442 72.557 44.324 73.141 45.576 73.381 46.224 73.62 46.87 73.963 48.026 74.142 48.792 74.324 49.556 74.534 51.146 74.609 52.323 74.695 53.656 74.647 55.148 74.481 56.282 74.335 57.284 74.031 58.702 73.809 59.439 73.584 60.175 73.353 60.776 73.295 60.776 73.237 60.776 71.863 59.822 67.303 56.532L67.468 55.071C67.558 54.266 67.541 52.837 67.429 51.895 67.318 50.953 67.065 49.702 66.869 49.113 66.672 48.525 66.233 47.512 65.893 46.866 65.555 46.218 64.866 45.199 64.363 44.6 63.862 44.003 62.873 43.053 62.167 42.488 61.461 41.925 60.451 41.246 59.92 40.979 59.389 40.714 58.283 40.286 57.459 40.027 56.286 39.663 55.426 39.56 53.5 39.558 51.454 39.556 50.75 39.648 49.327 40.099 48.385 40.399 47.014 41.009 46.277 41.454 45.541 41.901 44.399 42.794 43.737 43.442 43.078 44.088 42.241 45.051 41.878 45.582 41.516 46.111 40.949 47.146 40.018 49.22H32.742L32.877 48.632C32.95 48.308 33.243 47.369 33.525 46.545 33.81 45.721 34.435 44.324 34.914 43.442 35.393 42.558 36.196 41.306 36.697 40.66 37.197 40.012 38.27 38.856 39.083 38.092 39.894 37.326 41.086 36.352 41.732 35.926 42.378 35.501 43.485 34.863 44.191 34.512 44.897 34.159 46.004 33.699 46.652 33.489ZM33.303 59.76C32.995 58.788 32.742 57.945 32.742 57.887 32.742 57.829 34.379 57.78 40.018 57.78L40.617 59.118C40.949 59.854 41.516 60.887 41.878 61.418 42.241 61.949 43.078 62.912 43.737 63.558 44.399 64.204 45.541 65.099 46.277 65.546 47.014 65.991 48.385 66.601 49.327 66.901 50.742 67.35 51.467 67.444 53.5 67.449 55.631 67.453 56.216 67.374 59.745 66.233L62.721 68.427C64.863 70.006 65.644 70.695 65.505 70.888 65.398 71.035 64.461 71.6 63.419 72.146 62.377 72.692 60.898 73.342 60.134 73.59 59.37 73.841 57.926 74.19 56.924 74.365 55.922 74.541 54.384 74.686 53.5 74.686 52.618 74.686 51.078 74.541 50.076 74.365 49.074 74.19 47.63 73.839 46.866 73.586 46.102 73.334 44.897 72.841 44.191 72.49 43.485 72.139 42.28 71.433 41.516 70.922 40.752 70.41 39.389 69.242 38.49 68.326 37.591 67.41 36.47 66.083 36.001 65.377 35.53 64.671 34.856 63.515 34.503 62.809 34.15 62.103 33.611 60.731 33.303 59.76ZM61.482 60.562C61.801 59.95 62.291 59.426 62.826 59.122 63.34 58.829 64.039 58.64 64.628 58.634 65.394 58.628 65.852 58.797 66.875 59.46 67.581 59.92 69.533 61.294 71.211 62.516 72.888 63.736 74.733 65.071 75.309 65.484 75.887 65.895 76.554 66.522 76.796 66.875 77.036 67.228 77.297 67.902 77.372 68.373 77.468 68.957 77.4 69.501 77.156 70.085 76.961 70.556 76.638 71.123 76.439 71.346 76.24 71.568 75.692 71.928 75.221 72.144 74.75 72.36 74.076 72.54 73.723 72.542 73.37 72.546 72.766 72.379 72.383 72.172 72 71.966 70.753 71.123 69.612 70.299 68.471 69.475 66.233 67.834 64.639 66.653 62.488 65.06 61.643 64.301 61.364 63.71 61.159 63.273 60.988 62.604 60.986 62.221 60.984 61.838 61.206 61.093 61.482 60.562Z"/><path fill="#155CBA" d="M46.2774 47.6151C46.4251 47.3219 46.7375 46.9902 46.9729 46.881C47.2083 46.7719 47.6171 46.6735 47.8824 46.667C48.1842 46.6585 49.8277 47.7563 52.2694 49.5946C56.1172 52.4921 56.1749 52.5499 56.2306 53.3931C56.2605 53.8639 56.2135 54.3475 56.1236 54.4673C56.0337 54.5893 54.2511 55.9611 52.1624 57.5168C49.4083 59.5712 48.2013 60.3459 47.7754 60.3416C47.4523 60.3374 47.035 60.2175 46.8467 60.0741C46.6605 59.9308 46.3951 59.5969 46.2582 59.3316C46.1212 59.0662 46.0099 58.0326 46.0099 55.2121H38.6269C31.2675 55.2121 31.2418 55.2099 30.7196 54.7306C30.4329 54.4652 30.1718 54.0565 30.1418 53.8211C30.1119 53.5857 30.1483 53.1534 30.2232 52.8581C30.2981 52.5649 30.6062 52.2032 30.908 52.0556C31.3146 51.8565 33.3497 51.7881 46.0099 51.7881V49.9691C46.0099 48.9419 46.1255 47.9168 46.2774 47.6151Z"/></svg>